HIERARCHY
ROOT Hips
{
	OFFSET 0.000000 0.000000 0.000000
	CHANNELS 6 Xposition Yposition Zposition Xrotation Yrotation Zrotation
	JOINT LeftUpLeg_virtual
	{
		OFFSET 0.000000 0.000000 0.000000
		CHANNELS 3 Xrotation Yrotation Zrotation
		JOINT LeftUpLeg
		{
			OFFSET 13.026900 -6.336304 -1.092800
			CHANNELS 3 Xrotation Yrotation Zrotation
			JOINT LeftLeg
			{
				OFFSET 0.524474 -46.096886 9.782700
				CHANNELS 3 Xrotation Yrotation Zrotation
				JOINT LeftFoot
				{
					OFFSET -0.524474 -53.427422 -12.948200
					CHANNELS 3 Xrotation Yrotation Zrotation
					JOINT LeftToeBase
					{
						OFFSET 0.192200 -14.009700 16.364100
						CHANNELS 3 Xrotation Yrotation Zrotation
						JOINT LeftToe_End
						{
							OFFSET -1.784700 -0.561700 9.474800
							CHANNELS 3 Xrotation Yrotation Zrotation
							End Site
							{
								OFFSET 0 0 0
							}
						}
					}
				}
			}
		}
	}
	JOINT RightUpLeg_virtual
	{
		OFFSET 0.000000 0.000000 0.000000
		CHANNELS 3 Xrotation Yrotation Zrotation
		JOINT RightUpLeg
		{
			OFFSET -12.883000 -6.336304 -1.092800
			CHANNELS 3 Xrotation Yrotation Zrotation
			JOINT RightLeg
			{
				OFFSET -0.524587 -46.096825 9.782800
				CHANNELS 3 Xrotation Yrotation Zrotation
				JOINT RightFoot
				{
					OFFSET 0.524587 -53.427383 -12.948300
					CHANNELS 3 Xrotation Yrotation Zrotation
					JOINT RightToeBase
					{
						OFFSET -0.192200 -14.009700 16.364100
						CHANNELS 3 Xrotation Yrotation Zrotation
						JOINT RightToe_End
						{
							OFFSET 1.784700 -0.561700 9.474800
							CHANNELS 3 Xrotation Yrotation Zrotation
							End Site
							{
								OFFSET 0 0 0
							}
						}
					}
				}
			}
		}
	}
	JOINT Spine_virtual
	{
		OFFSET 0.000000 0.000000 0.000000
		CHANNELS 3 Xrotation Yrotation Zrotation
		JOINT Spine
		{
			OFFSET 0.072000 7.257294 -0.789700
			CHANNELS 3 Xrotation Yrotation Zrotation
			JOINT Spine1
			{
				OFFSET 0.000000 12.508769 -0.658067
				CHANNELS 3 Xrotation Yrotation Zrotation
				JOINT Spine1_split
				{
					OFFSET 0.000000 12.508769 -0.658067
					CHANNELS 3 Xrotation Yrotation Zrotation
					JOINT Spine2
					{
						OFFSET 0.000000 12.508769 -0.658067
						CHANNELS 3 Xrotation Yrotation Zrotation
						JOINT Neck_virtual
						{
							OFFSET 0.000000 0.000000 0.000000
							CHANNELS 3 Xrotation Yrotation Zrotation
							JOINT Neck
							{
								OFFSET 0.000000 14.033295 7.520400
								CHANNELS 3 Xrotation Yrotation Zrotation
								JOINT Head
								{
									OFFSET 0.000000 8.198502 5.703100
									CHANNELS 3 Xrotation Yrotation Zrotation
									JOINT HeadTop_End
									{
										OFFSET 0.000000 17.760803 13.332701
										CHANNELS 3 Xrotation Yrotation Zrotation
										End Site
										{
											OFFSET 0 0 0
										}
									}
								}
							}
						}
						JOINT LeftShoulder_virtual
						{
							OFFSET 0.000000 0.000000 0.000000
							CHANNELS 3 Xrotation Yrotation Zrotation
							JOINT LeftShoulder
							{
								OFFSET 6.292450 5.785301 -0.669000
								CHANNELS 3 Xrotation Yrotation Zrotation
								JOINT LeftShoulder_split
								{
									OFFSET 6.292450 5.785301 -0.669000
									CHANNELS 3 Xrotation Yrotation Zrotation
									JOINT LeftArm
									{
										OFFSET 13.907140 -6.093903 1.965100
										CHANNELS 3 Xrotation Yrotation Zrotation
										JOINT LeftForeArm
										{
											OFFSET 34.140198 0.000000 0.000000
											CHANNELS 3 Xrotation Yrotation Zrotation
											JOINT LeftHand
											{
												OFFSET 40.960209 0.000000 0.000000
												CHANNELS 3 Xrotation Yrotation Zrotation
												End Site
												{
													OFFSET 0 0 0
												}
											}
										}
									}
								}
							}
						}
						JOINT RightShoulder_virtual
						{
							OFFSET 0.000000 0.000000 0.000000
							CHANNELS 3 Xrotation Yrotation Zrotation
							JOINT RightShoulder
							{
								OFFSET -6.292450 5.785301 -0.669000
								CHANNELS 3 Xrotation Yrotation Zrotation
								JOINT RightShoulder_split
								{
									OFFSET -6.292450 5.785301 -0.669000
									CHANNELS 3 Xrotation Yrotation Zrotation
									JOINT RightArm
									{
										OFFSET -13.907140 -6.093903 1.965100
										CHANNELS 3 Xrotation Yrotation Zrotation
										JOINT RightForeArm
										{
											OFFSET -34.140198 0.000000 0.000000
											CHANNELS 3 Xrotation Yrotation Zrotation
											JOINT RightHand
											{
												OFFSET -40.960209 0.000000 0.000000
												CHANNELS 3 Xrotation Yrotation Zrotation
												End Site
												{
													OFFSET 0 0 0
												}
											}
										}
									}
								}
							}
						}
					}
				}
			}
		}
	}
}
MOTION
Frames: 8
Frame Time: 0.03333333
-1.702074 53.930958 -10.230946 0.000000 0.000000 0.000000 4.910966 -6.105772 3.779139 -13.674482 1.155763 8.890600 104.627010 12.766783 4.621022 16.622237 5.124494 -24.676304 1.105477 3.488840 16.862390 0.000000 0.000000 0.000000 6.823341 -1.860968 2.330087 -8.316630 6.259917 -17.491228 98.867487 6.402591 -1.594312 10.750709 7.649545 16.152342 -20.072843 -1.667400 -15.986240 0.000000 0.000000 0.000000 6.036137 -1.070041 1.158272 1.382328 1.808152 -1.518501 -0.306192 0.161017 0.204615 0.430695 -2.724774 0.849404 0.000000 0.000000 0.000000 0.073571 0.404438 -0.043519 -1.122678 2.375130 -0.786166 -0.216662 -2.687865 0.572255 0.000000 0.000000 0.000000 -0.224561 0.303574 -0.110198 0.264563 -4.058421 -20.067161 0.421390 2.722642 -2.677983 15.978140 -22.805757 -48.321666 1.644992 -27.628373 0.370020 0.000000 0.000000 0.000000 -0.334634 0.382490 0.256552 -0.177847 9.144343 22.539942 -2.623486 -3.834108 -3.429061 3.501010 3.782567 62.514563 2.627165 22.683782 -0.126902 0.000000 0.000000 0.000000 
-1.576065 53.837082 -10.204632 0.000000 0.000000 0.000000 4.874835 -6.114638 3.654500 -13.731698 1.046780 8.966318 104.716902 12.766664 4.632482 16.558395 5.123704 -24.883766 1.048873 3.475280 16.836584 0.000000 0.000000 0.000000 6.857583 -1.889123 2.214050 -8.274750 6.110648 -17.382618 98.728390 6.336844 -1.600008 10.834141 7.581008 16.105830 -20.138956 -1.677071 -15.950618 0.000000 0.000000 0.000000 6.120372 -0.894514 0.923452 1.443911 1.851361 -1.429758 -0.363437 0.174628 0.172304 0.512774 -2.951842 0.885994 0.000000 0.000000 0.000000 0.050238 0.399430 -0.042122 -0.895856 2.495848 -0.942079 0.318445 -2.273636 0.652824 0.000000 0.000000 0.000000 -0.297856 0.328062 -0.169786 0.240130 -4.019371 -20.144736 0.399624 2.836245 -2.608734 16.337649 -22.218155 -48.440241 1.913113 -28.073027 0.460953 0.000000 0.000000 0.000000 -0.319064 0.413017 0.250910 -0.151556 8.849316 22.517167 -2.530452 -3.996656 -3.521526 3.342723 3.681390 62.349245 2.590406 22.922229 -0.109923 0.000000 0.000000 0.000000 
-1.506050 53.707203 -10.141209 0.000000 0.000000 0.000000 4.906632 -6.181592 3.469749 -13.793452 0.829737 9.197885 104.915879 12.621292 4.653387 16.494120 5.095692 -25.051828 1.061402 3.458962 16.836821 0.000000 0.000000 0.000000 6.915104 -1.921859 2.011615 -8.173039 5.921581 -17.154736 98.645239 6.242068 -1.658547 10.783549 7.496211 16.089759 -20.257955 -1.674979 -15.914465 0.000000 0.000000 0.000000 6.118220 -0.928312 0.637995 1.428512 1.880939 -1.356283 -0.429387 0.194249 0.185119 0.552603 -3.144844 1.002515 0.000000 0.000000 0.000000 0.041012 0.382973 -0.008702 -0.515029 2.535725 -0.792070 2.064200 -1.779132 0.482647 0.000000 0.000000 0.000000 -0.348564 0.315563 -0.189613 0.245060 -3.771332 -20.138102 0.386042 2.890246 -2.462735 16.552140 -20.851741 -48.991953 2.074177 -29.854217 0.552705 0.000000 0.000000 0.000000 -0.307532 0.408150 0.280639 -0.141906 8.402153 22.629154 -2.408426 -3.918900 -3.491926 3.054567 3.261603 61.978277 2.481166 22.965201 -0.093726 0.000000 0.000000 0.000000 
-1.476102 53.566101 -10.075039 0.000000 0.000000 0.000000 4.974956 -6.258102 3.248501 -13.844225 0.509283 9.549334 105.175843 12.360722 4.677127 16.462467 5.093069 -25.117080 1.147025 3.442545 16.866741 0.000000 0.000000 0.000000 6.970831 -2.023066 1.757506 -8.062278 5.701108 -16.829871 98.635916 6.120413 -1.761840 10.604937 7.385314 16.088601 -20.422484 -1.663434 -15.878810 0.000000 0.000000 0.000000 6.035514 -1.146014 0.342547 1.329769 1.906049 -1.299592 -0.502572 0.215487 0.235991 0.597186 -3.258385 1.146092 0.000000 0.000000 0.000000 0.019544 0.361822 0.058805 -0.025827 2.519609 -0.429296 4.826844 -1.295908 0.093252 0.000000 0.000000 0.000000 -0.368746 0.274597 -0.170622 0.274880 -3.397043 -20.052809 0.424200 2.883236 -2.265964 16.738123 -18.752423 -49.851085 2.137899 -32.534831 0.686430 0.000000 0.000000 0.000000 -0.299565 0.370529 0.342909 -0.141835 7.856081 22.812875 -2.261938 -3.582873 -3.389000 2.720165 2.572813 61.414418 2.315458 22.799685 -0.069211 0.000000 0.000000 0.000000 
-1.445913 53.427368 -10.063206 0.000000 0.000000 0.000000 5.062349 -6.380110 3.010413 -13.894950 0.128671 9.957355 105.442473 12.031091 4.678224 16.467504 5.176649 -25.078189 1.283477 3.429156 16.918947 0.000000 0.000000 0.000000 7.024973 -2.237194 1.492210 -8.010339 5.463482 -16.446163 98.693344 5.984713 -1.904665 10.365345 7.260981 16.087580 -20.666530 -1.638055 -15.843129 0.000000 0.000000 0.000000 5.934411 -1.539905 0.073566 1.169554 1.949055 -1.261515 -0.562824 0.236986 0.312446 0.628831 -3.272008 1.246853 0.000000 0.000000 0.000000 -0.016239 0.345835 0.154137 0.529509 2.501257 0.029499 8.315999 -0.922480 -0.462234 0.000000 0.000000 0.000000 -0.364797 0.221186 -0.128548 0.323019 -3.002868 -19.907973 0.487910 2.826626 -2.100464 16.957370 -16.093719 -50.869866 2.150287 -35.566462 0.854634 0.000000 0.000000 0.000000 -0.289779 0.318899 0.425801 -0.160850 7.283425 22.995772 -2.064533 -3.101465 -3.264982 2.368738 1.651390 60.696777 2.106186 22.422415 -0.038340 0.000000 0.000000 0.000000 
-1.396469 53.274406 -10.104664 0.000000 0.000000 0.000000 5.171549 -6.560638 2.777762 -14.026291 -0.263586 10.361076 105.689849 11.661669 4.651380 16.564950 5.363521 -25.014733 1.435738 3.426003 16.974258 0.000000 0.000000 0.000000 7.106747 -2.546594 1.233718 -8.103403 5.245521 -16.030150 98.814184 5.840259 -2.061175 10.134553 7.141916 16.068532 -20.966973 -1.603707 -15.801668 0.000000 0.000000 0.000000 5.855727 -2.056732 -0.167664 1.001726 2.036847 -1.241922 -0.597092 0.262388 0.399007 0.556304 -3.155911 1.243470 0.000000 0.000000 0.000000 -0.051644 0.348685 0.265483 1.119673 2.492536 0.469322 12.221923 -0.701640 -1.116909 0.000000 0.000000 0.000000 -0.342731 0.178443 -0.080742 0.383640 -2.663343 -19.718138 0.534668 2.778337 -1.975073 17.223570 -13.260980 -51.922767 2.167783 -38.553430 1.056020 0.000000 0.000000 0.000000 -0.281362 0.273490 0.521228 -0.211215 6.750419 23.099649 -1.856478 -2.539150 -3.163443 2.050554 0.581774 59.850830 1.883826 21.874164 -0.012988 0.000000 0.000000 0.000000 
-1.347538 53.099808 -10.182072 0.000000 0.000000 0.000000 5.299881 -6.769482 2.558359 -14.316279 -0.613198 10.735191 105.925333 11.250552 4.622100 16.811831 5.619565 -25.064054 1.594499 3.439048 17.007262 0.000000 0.000000 0.000000 7.227123 -2.927156 0.994798 -8.402051 5.078357 -15.598742 98.967631 5.687136 -2.206851 9.968079 7.041183 16.020122 -21.297146 -1.563906 -15.751183 0.000000 0.000000 0.000000 5.822466 -2.636196 -0.384135 0.897694 2.184041 -1.234000 -0.601041 0.295743 0.478003 0.440877 -2.944562 1.216635 0.000000 0.000000 0.000000 -0.073120 0.380646 0.376503 1.694733 2.509747 0.797750 16.231243 -0.623899 -1.768534 0.000000 0.000000 0.000000 -0.320132 0.166577 -0.032322 0.445756 -2.388626 -19.517931 0.593413 2.850419 -1.830991 17.446583 -10.690353 -52.914480 2.159229 -41.332722 1.227402 0.000000 0.000000 0.000000 -0.278504 0.251208 0.612681 -0.293247 6.295636 23.103791 -1.639168 -1.946794 -3.108631 1.751385 -0.487739 58.941746 1.664073 21.211798 0.007271 0.000000 0.000000 0.000000 
-1.305816 52.924782 -10.288967 0.000000 0.000000 0.000000 5.465577 -6.979130 2.348862 -14.830658 -0.893754 11.066278 106.195310 10.802743 4.602275 17.186173 5.945012 -25.285301 1.765307 3.470288 17.009997 0.000000 0.000000 0.000000 7.398787 -3.304363 0.765803 -8.932017 4.989921 -15.165884 99.123264 5.526756 -2.341543 9.866264 6.965009 15.938719 -21.608707 -1.523734 -15.694154 0.000000 0.000000 0.000000 5.889055 -3.224503 -0.573378 0.916771 2.403860 -1.233910 -0.582527 0.338198 0.539199 0.379200 -2.822555 1.215897 0.000000 0.000000 0.000000 -0.055875 0.450121 0.468547 2.206885 2.563916 0.977026 20.005996 -0.703383 -2.314093 0.000000 0.000000 0.000000 -0.313084 0.199813 0.016047 0.511256 -2.167572 -19.345029 0.774819 3.069042 -1.692113 17.478949 -8.745004 -53.730445 2.086864 -43.768569 1.290689 0.000000 0.000000 0.000000 -0.278604 0.259551 0.684064 -0.412788 5.969538 23.014830 -1.380415 -1.330640 -3.032412 1.457919 -1.394788 58.025626 1.463344 20.529875 0.021351 0.000000 0.000000 0.000000 
